<svg width="259" height="59" viewBox="0 0 259 59" fill="none" xmlns="http://www.w3.org/2000/svg">
<path d="M1.90735e-06 0.703995H9.28L22.336 34.816L35.328 0.703995H44.608V45.504H36.608V18.048L26.24 45.248L26.304 45.504H18.304L18.368 45.248L8 18.048V45.504H1.90735e-06V0.703995ZM48.4375 13.504H56.1175V45.504H48.4375V13.504ZM48.0535 4.224C48.0535 3.07199 48.4588 2.09066 49.2695 1.27999C50.0802 0.426662 51.0828 -3.8147e-06 52.2775 -3.8147e-06C53.4722 -3.8147e-06 54.4748 0.426662 55.2855 1.27999C56.0962 2.09066 56.5015 3.07199 56.5015 4.224C56.5015 5.46133 56.0962 6.48533 55.2855 7.296C54.4748 8.10666 53.4722 8.512 52.2775 8.512C51.0828 8.512 50.0802 8.10666 49.2695 7.296C48.4588 6.48533 48.0535 5.46133 48.0535 4.224ZM74.345 12.928C76.9903 12.928 79.2303 13.376 81.065 14.272C82.9423 15.1253 84.4783 16.2347 85.673 17.6C86.8677 18.9227 87.721 20.3733 88.233 21.952C88.7877 23.5307 89.065 25.024 89.065 26.432V45.504H81.385V26.624C81.385 25.472 81.193 24.4907 80.809 23.68C80.425 22.8693 79.913 22.1867 79.273 21.632C78.633 21.0773 77.8863 20.672 77.033 20.416C76.1797 20.16 75.2837 20.032 74.345 20.032C73.4063 20.032 72.5103 20.16 71.657 20.416C70.8037 20.672 70.057 21.0773 69.417 21.632C68.777 22.1867 68.265 22.8693 67.881 23.68C67.497 24.4907 67.305 25.472 67.305 26.624V45.504H59.625V26.432C59.625 25.024 59.881 23.5307 60.393 21.952C60.9477 20.3733 61.8223 18.9227 63.017 17.6C64.2117 16.2347 65.7263 15.1253 67.561 14.272C69.4383 13.376 71.6997 12.928 74.345 12.928ZM125.067 0.703995V29.568C125.067 32.128 124.619 34.432 123.723 36.48C122.87 38.528 121.696 40.256 120.203 41.664C118.71 43.072 116.939 44.16 114.891 44.928C112.843 45.6533 110.646 46.016 108.299 46.016C105.867 46.016 103.648 45.632 101.643 44.864C99.6803 44.0533 97.9737 42.9227 96.523 41.472C95.0723 40.0213 93.9417 38.2933 93.131 36.288C92.363 34.2827 91.979 32.0427 91.979 29.568C91.979 27.0933 92.363 24.832 93.131 22.784C93.9417 20.736 95.051 18.9867 96.459 17.536C97.867 16.0853 99.5523 14.976 101.515 14.208C103.478 13.3973 105.611 12.992 107.915 12.992C110.219 12.992 112.182 13.3547 113.803 14.08C115.424 14.8053 116.619 15.6587 117.387 16.64V0.703995H125.067ZM99.659 29.504C99.659 32.4907 100.448 34.816 102.027 36.48C103.648 38.144 105.803 38.976 108.491 38.976C111.179 38.976 113.334 38.144 114.955 36.48C116.576 34.816 117.387 32.4907 117.387 29.504C117.387 26.5173 116.576 24.192 114.955 22.528C113.334 20.864 111.179 20.032 108.491 20.032C105.803 20.032 103.648 20.864 102.027 22.528C100.448 24.192 99.659 26.5173 99.659 29.504ZM128.938 0.703995H138.218L151.274 34.816L164.266 0.703995H173.546V45.504H165.546V18.048L155.178 45.248L155.242 45.504H147.242L147.306 45.248L136.938 18.048V45.504H128.938V0.703995ZM192.927 13.056C195.402 13.056 197.663 13.4613 199.711 14.272C201.759 15.04 203.508 16.1493 204.959 17.6C206.41 19.0507 207.519 20.8 208.287 22.848C209.098 24.896 209.503 27.1573 209.503 29.632V45.504H201.823V42.432C201.055 43.4133 199.86 44.2667 198.239 44.992C196.66 45.7173 194.698 46.08 192.351 46.08C190.047 46.08 187.914 45.696 185.951 44.928C183.988 44.1173 182.303 42.9867 180.895 41.536C179.487 40.0853 178.378 38.336 177.567 36.288C176.799 34.24 176.415 31.9787 176.415 29.504C176.415 27.0293 176.799 24.7893 177.567 22.784C178.378 20.736 179.508 19.008 180.959 17.6C182.41 16.1493 184.138 15.04 186.143 14.272C188.191 13.4613 190.452 13.056 192.927 13.056ZM201.823 29.568C201.823 26.5813 201.012 24.256 199.391 22.592C197.812 20.928 195.679 20.096 192.991 20.096C190.303 20.096 188.148 20.928 186.527 22.592C184.906 24.256 184.095 26.5813 184.095 29.568C184.095 32.5547 184.906 34.88 186.527 36.544C188.148 38.208 190.303 39.04 192.991 39.04C195.679 39.04 197.812 38.208 199.391 36.544C201.012 34.88 201.823 32.5547 201.823 29.568ZM213 58.304V29.44C213 26.88 213.427 24.576 214.28 22.528C215.176 20.48 216.371 18.752 217.864 17.344C219.357 15.936 221.128 14.8693 223.176 14.144C225.224 13.376 227.421 12.992 229.768 12.992C232.2 12.992 234.397 13.3973 236.36 14.208C238.365 14.976 240.093 16.0853 241.544 17.536C242.995 18.9867 244.104 20.7147 244.872 22.72C245.683 24.7253 246.088 26.9653 246.088 29.44C246.088 31.9147 245.683 34.176 244.872 36.224C244.104 38.272 243.016 40.0213 241.608 41.472C240.2 42.9227 238.515 44.0533 236.552 44.864C234.589 45.632 232.456 46.016 230.152 46.016C227.848 46.016 225.885 45.6533 224.264 44.928C222.643 44.2027 221.448 43.3493 220.68 42.368V58.304H213ZM238.408 29.504C238.408 26.5173 237.597 24.192 235.976 22.528C234.397 20.864 232.264 20.032 229.576 20.032C226.888 20.032 224.733 20.864 223.112 22.528C221.491 24.192 220.68 26.5173 220.68 29.504C220.68 32.4907 221.491 34.816 223.112 36.48C224.733 38.144 226.888 38.976 229.576 38.976C232.264 38.976 234.397 38.144 235.976 36.48C237.597 34.816 238.408 32.4907 238.408 29.504ZM249.063 41.344C249.063 39.936 249.489 38.8053 250.343 37.952C251.239 37.0987 252.391 36.672 253.799 36.672C255.207 36.672 256.337 37.0987 257.191 37.952C258.087 38.8053 258.535 39.936 258.535 41.344C258.535 42.7947 258.087 43.9467 257.191 44.8C256.337 45.6533 255.207 46.08 253.799 46.08C252.391 46.08 251.239 45.6533 250.343 44.8C249.489 43.9467 249.063 42.7947 249.063 41.344Z" fill="black"/>
</svg>
